<svg xmlns="http://www.w3.org/2000/svg" xmlns:xlink="http://www.w3.org/1999/xlink" width="50" zoomAndPan="magnify" viewBox="0 0 37.5 37.499999" height="50" preserveAspectRatio="xMidYMid meet" version="1.0"><defs><clipPath id="e9c2e178fc"><path d="M 0.0273438 3.699219 L 36.980469 3.699219 L 36.980469 30.71875 L 0.0273438 30.71875 Z M 0.0273438 3.699219 " clip-rule="nonzero"/></clipPath><clipPath id="d075b2cc96"><path d="M 7.5625 10.382812 L 36.980469 10.382812 L 36.980469 34.046875 L 7.5625 34.046875 Z M 7.5625 10.382812 " clip-rule="nonzero"/></clipPath></defs><g clip-path="url(#e9c2e178fc)"><path fill="#e92e37" d="M 8.234375 26.765625 L 11.941406 30.671875 L 36.980469 10.390625 L 9.0625 19.488281 Z M 3.296875 15.015625 C 3.296875 15.015625 5.476562 23.773438 5.523438 23.910156 C 5.566406 24.046875 7.632812 26.132812 7.632812 26.132812 Z M 6.613281 3.699219 L 8.570312 6.140625 L 0.0273438 4.566406 Z M 6.613281 3.699219 " fill-opacity="1" fill-rule="nonzero"/></g><g clip-path="url(#d075b2cc96)"><path fill="#d42924" d="M 23.210938 33.1875 L 36.980469 10.390625 L 11.941406 30.671875 L 15.148438 34.046875 Z M 7.941406 18.527344 L 9.0625 19.488281 L 8.234375 26.765625 L 7.632812 26.132812 L 7.941406 18.527344 " fill-opacity="1" fill-rule="nonzero"/></g><path fill="#c11f25" d="M 26.101562 32.855469 L 24.460938 31.113281 C 24.460938 31.113281 29.089844 23.457031 29.15625 23.347656 C 29.21875 23.238281 36 25.257812 36 25.257812 L 26.101562 32.855469 " fill-opacity="1" fill-rule="nonzero"/><path fill="#f04156" d="M 24.828125 8.320312 L 8.03125 17.582031 L 7.941406 18.527344 L 9.0625 19.488281 L 23.332031 14.835938 Z M 8.570312 6.140625 L 7.632812 26.132812 L 3.296875 15.015625 L 5.703125 5.613281 L 8.570312 6.140625 " fill-opacity="1" fill-rule="nonzero"/></svg>